<svg width="256" height="256" viewBox="0 0 256 256" fill="none" xmlns="http://www.w3.org/2000/svg">
  <defs>
    <linearGradient id="bgGrad" x1="0" y1="0" x2="1" y2="1">
      <stop offset="0%" stop-color="#020617"/>
      <stop offset="100%" stop-color="#020617"/>
    </linearGradient>
    <linearGradient id="hexGrad" x1="0" y1="0" x2="1" y2="1">
      <stop offset="0%" stop-color="#22c55e"/>
      <stop offset="100%" stop-color="#06b6d4"/>
    </linearGradient>
  </defs>

  <circle cx="128" cy="128" r="122" fill="url(#bgGrad)" />
  <circle cx="128" cy="128" r="118" stroke="#facc15" stroke-width="4" fill="none" opacity="0.9"/>

  <path
    d="M128 60
       L178 88
       L178 144
       L128 172
       L78 144
       L78 88
       Z"
    fill="none"
    stroke="url(#hexGrad)"
    stroke-width="8"
    stroke-linejoin="round"
  />

  <path
    d="M148 102
       C148 92 140 84 130 84
       H116
       C104 84 96 92 96 104
       V128
       C96 140 104 148 116 148
       H140
       C146 148 150 144 150 138
       V130
       H132"
    fill="none"
    stroke="url(#hexGrad)"
    stroke-width="10"
    stroke-linecap="round"
    stroke-linejoin="round"
  />

  <text x="128" y="210"
        text-anchor="middle"
        font-family="system-ui, -apple-system, BlinkMacSystemFont, 'Segoe UI', sans-serif"
        font-size="28"
        fill="#e5e7eb"
        letter-spacing="4">
    GHX
  </text>
</svg>
